<svg viewBox="0 0 11 6" xmlns="http://www.w3.org/2000/svg">
    <path d="M1.34 5.754c.161-.042.276-.149.39-.263C3.045 4.174 4.36 2.86 5.675 1.541c.063-.063.095-.063.157 0 1.314 1.318 2.631 2.633 3.946 3.95.114.115.229.222.39.263h.176a.59.59 0 0 0 .41-.41v-.196c-.051-.16-.163-.274-.279-.39C9.065 3.35 7.657 1.941 6.25.53 6.13.413 6.015.297 5.852.246h-.196c-.163.052-.28.166-.397.284C3.85 1.94 2.442 3.35 1.032 4.758c-.116.115-.226.231-.278.39v.196l.048.114c.07.16.207.239.362.296h.176z" stroke-width=".2" fill-rule="evenodd"/>
</svg>
