<svg width="12" height="9" viewBox="0 0 12 9" xmlns="http://www.w3.org/2000/svg">
    <path d="M9.265 5.084H.938c-.425 0-.662-.149-.769-.48a.718.718 0 0 1 .657-.964c.074-.004.148-.003.222-.003H9.476c-.01-.09-.07-.119-.112-.16A815.828 815.828 0 0 0 7.16 1.281c-.214-.212-.312-.454-.226-.753A.725.725 0 0 1 8.098.17c.056.047.107.101.159.153l3.452 3.45c.386.386.388.785.005 1.169-1.178 1.178-2.36 2.352-3.534 3.535-.482.487-1.131.168-1.257-.332-.071-.284.036-.507.234-.704l2.19-2.185c.044-.044.085-.09.14-.147-.087-.039-.156-.024-.222-.024z" fill="#b9b9b9" fill-rule="evenodd"/>
</svg>
