<svg viewBox="0 0 11 6" xmlns="http://www.w3.org/2000/svg">
    <path d="M10.168.246c-.161.042-.276.149-.39.263-1.315 1.317-2.632 2.632-3.946 3.95-.062.063-.094.063-.157 0C4.361 3.141 3.045 1.826 1.73.51 1.616.393 1.501.286 1.34.245h-.176a.59.59 0 0 0-.41.41v.196c.051.16.163.274.278.39C2.442 2.65 3.852 4.059 5.26 5.47c.117.117.234.233.397.284h.196c.163-.052.28-.166.397-.284 1.408-1.41 2.817-2.82 4.227-4.228.115-.115.226-.231.278-.39V.656l-.048-.114c-.07-.16-.208-.239-.362-.296h-.176z" stroke-width=".2" fill-rule="evenodd"/>
</svg>
