<svg width="17" height="16" viewBox="0 0 17 16" fill="none" xmlns="http://www.w3.org/2000/svg">
<g clip-path="url(#clip0_3048_14247)">
<path d="M0 14.0481C0 10.843 0 7.6412 0 4.43604C1.01157 4.43604 2.02314 4.43943 3.03471 4.43604C7.68864 4.43604 12.3461 4.43604 17 4.43604C17 7.57337 17 10.7073 17 13.8446C16.993 13.8582 16.9789 13.8718 16.9754 13.8887C16.8946 14.4585 16.5364 14.8214 16.0376 15.0894C15.8444 15.1911 15.6267 15.2318 15.4194 15.3031C10.6777 15.3031 5.93595 15.3031 1.19421 15.3031C1.16963 15.2929 1.14504 15.2759 1.11694 15.2692C0.611157 15.164 0.284504 14.8622 0.108884 14.4009C0.0632231 14.2856 0.035124 14.1635 0 14.0481ZM12.5112 6.32861C12.3004 6.32861 12.0897 6.32522 11.8789 6.32861C11.6155 6.332 11.4469 6.46428 11.4399 6.71187C11.4258 7.15279 11.4293 7.59033 11.4399 8.03125C11.4469 8.26188 11.5979 8.39755 11.8333 8.40434C12.2899 8.41451 12.7465 8.41451 13.2031 8.40434C13.4525 8.40094 13.5895 8.26188 13.593 8.01768C13.6 7.59372 13.6 7.17314 13.593 6.74918C13.5895 6.49141 13.4138 6.33539 13.1434 6.332C12.9326 6.32861 12.7219 6.32861 12.5112 6.32861ZM12.5322 10.921C12.311 10.921 12.0897 10.9176 11.8649 10.921C11.5909 10.9278 11.4399 11.0668 11.4329 11.328C11.4223 11.7486 11.4223 12.1725 11.4329 12.5931C11.4399 12.8509 11.605 12.9933 11.8719 12.9967C12.2969 13.0001 12.7254 13.0001 13.1504 12.9967C13.4349 12.9933 13.5859 12.8543 13.5895 12.5829C13.593 12.1725 13.593 11.7621 13.5895 11.3517C13.5859 11.0804 13.4279 10.9278 13.1434 10.921C12.9397 10.9142 12.7359 10.921 12.5322 10.921ZM3.02066 7.36308C3.02066 7.56658 3.01715 7.77009 3.02066 7.9702C3.02417 8.24153 3.17169 8.40094 3.44566 8.40434C3.87066 8.41112 4.29917 8.41112 4.72417 8.40434C5.00165 8.39755 5.17025 8.23475 5.17727 7.9668C5.18781 7.55641 5.1843 7.14601 5.17727 6.73222C5.17025 6.47445 5.00517 6.32861 4.73822 6.32861C4.31322 6.32522 3.88471 6.32522 3.45971 6.32861C3.19277 6.332 3.02769 6.4948 3.02066 6.75257C3.01715 6.95947 3.02066 7.15958 3.02066 7.36308ZM3.02066 11.9521C3.02066 12.1488 3.02066 12.3455 3.02066 12.5422C3.02417 12.8339 3.18574 12.9967 3.4843 12.9967C3.88822 13.0001 4.29215 13.0001 4.69256 12.9967C4.98058 12.9933 5.17376 12.8271 5.18079 12.549C5.19132 12.1386 5.18781 11.7282 5.18079 11.3178C5.17376 11.0634 5.02273 10.9244 4.7593 10.921C4.32727 10.9142 3.89525 10.9142 3.46322 10.921C3.17872 10.9244 3.0312 11.0838 3.02769 11.3619C3.01715 11.5586 3.02066 11.7553 3.02066 11.9521ZM7.20041 7.38004C7.20041 7.58354 7.1969 7.78365 7.20041 7.98715C7.20393 8.23814 7.35145 8.39755 7.60434 8.40434C8.06095 8.41451 8.51405 8.41112 8.97066 8.40434C9.22004 8.39755 9.34649 8.27884 9.35 8.03464C9.36054 7.6005 9.36054 7.16636 9.35 6.73561C9.34649 6.48124 9.17789 6.33539 8.91095 6.332C8.48595 6.32861 8.05744 6.32861 7.63244 6.332C7.3655 6.33539 7.20041 6.49819 7.1969 6.75596C7.1969 6.96286 7.20041 7.17314 7.20041 7.38004ZM9.35351 11.969C9.35702 11.7486 9.36405 11.5281 9.35351 11.3076C9.34297 11.0702 9.19897 10.9244 8.95661 10.921C8.50702 10.9142 8.05393 10.9142 7.60434 10.921C7.35847 10.9244 7.20393 11.0838 7.20041 11.3212C7.1969 11.7452 7.1969 12.1657 7.20041 12.5897C7.20393 12.8203 7.36901 12.9899 7.60785 12.9933C8.05744 13.0001 8.51054 13.0001 8.96012 12.9933C9.20248 12.9899 9.34297 12.861 9.35351 12.627C9.36054 12.4099 9.35351 12.1895 9.35351 11.969Z" fill="white"/>
<path d="M0 3.38754C0 2.67528 0 1.96641 0 1.25416C0.035124 1.2338 0.0316116 1.1965 0.0386364 1.16258C0.158058 0.555463 0.649793 -0.0346944 1.50682 -0.00077729C1.93884 0.0161813 2.37438 0.00939784 2.8064 -0.00077729C2.93988 -0.004169 2.975 0.0331398 2.975 0.158633C2.96797 0.592772 2.97149 1.02691 2.97149 1.46105C2.97149 1.57976 2.97851 1.69847 3.05227 1.80022C3.18223 1.98337 3.42107 2.07495 3.63533 2.01729C3.86012 1.95624 4.01467 1.77648 4.01818 1.54584C4.02521 1.08457 4.02521 0.619905 4.01818 0.158633C4.01818 0.0365315 4.04628 -0.004169 4.18326 -0.004169C6.89835 -0.00077729 9.61343 -0.00077729 12.3285 -0.004169C12.476 -0.004169 12.5006 0.0433149 12.5006 0.168808C12.4936 0.60973 12.4971 1.04726 12.4971 1.48818C12.4971 1.61028 12.5147 1.72221 12.5919 1.82396C12.7289 1.99694 12.9643 2.07495 13.168 2.01051C13.3893 1.94267 13.5333 1.77648 13.5368 1.54923C13.5438 1.08796 13.5438 0.623297 13.5368 0.162025C13.5333 0.0263564 13.5789 -0.00756071 13.7159 -0.004169C14.1795 0.00261442 14.6397 -0.00077729 15.1033 -0.00077729C15.3527 -0.00077729 15.5915 0.0467066 15.8198 0.134891C16.5504 0.416403 16.9333 0.955685 16.9333 1.70864C16.9333 2.18688 16.9333 2.6685 16.9333 3.14673C16.9333 3.40111 16.9684 3.37397 16.7014 3.37397C11.2116 3.37397 5.72169 3.37397 0.231818 3.37397C0.151033 3.37737 0.0772727 3.38415 0 3.38754Z" fill="white"/>
</g>
<defs>
<clipPath id="clip0_3048_14247">
<rect width="17" height="15.3" fill="white"/>
</clipPath>
</defs>
</svg>
