<svg width="16" height="16" viewBox="0 0 16 16"
    xmlns="http://www.w3.org/2000/svg"
    xmlns:xlink="http://www.w3.org/1999/xlink">
    <defs>
        <path id="tv6y43woha" d="M0 0h12.252v12.256H0z"/>
        <path id="zphnxwsmac" d="M0 0h12.242v12.243H0z"/>
    </defs>
    <g fill="currentColor" fill-rule="evenodd">
        <g transform="translate(3.744 3.744)">
            <mask id="odbj0j49gb" fill="#fff">
                <use xlink:href="#tv6y43woha"/>
            </mask>
            <path d="M1.256 6.108v4.164c0 .493.23.723.723.723h8.294c.492 0 .723-.231.723-.723V1.978c0-.493-.23-.723-.723-.723H1.98c-.493 0-.723.23-.723.723v4.13zm.439 6.148c-.196-.057-.4-.083-.585-.175-.74-.367-1.106-.968-1.108-1.788-.003-1.905 0-3.81 0-5.714 0-.883-.004-1.766 0-2.649C.006.99.591.251 1.482.047 1.64.01 1.8 0 1.962 0h8.33c1.148.001 1.959.814 1.96 1.964v8.329c-.001 1.021-.626 1.758-1.636 1.936-.02.003-.039.017-.058.027H1.695z" mask="url(#odbj0j49gb)"/>
        </g>
        <g>
            <mask id="a5mf267dxd" fill="#fff">
                <use xlink:href="#zphnxwsmac"/>
            </mask>
            <path d="M.002 6.11c0-1.4-.003-2.8.001-4.198C.006.935.638.188 1.59.023c.103-.018.21-.021.315-.021 2.81-.001 5.619-.004 8.428 0 .914.002 1.642.571 1.856 1.426.079.312.044.63.052.945.003.071-.027.096-.098.096-.35-.002-.7-.003-1.05 0-.088.001-.097-.045-.096-.115.002-.15.003-.3 0-.45-.009-.395-.267-.657-.664-.657-2.81-.002-5.619-.002-8.428 0-.395 0-.658.265-.658.662-.002 2.81-.002 5.62 0 8.429 0 .394.267.651.663.658.161.002.323.003.484 0 .076-.002.109.022.108.104-.003.344-.002.688 0 1.033 0 .061-.007.108-.087.108-.47 0-.946.038-1.383-.2C.396 11.693.02 11.165.01 10.44-.009 8.997.005 7.553.005 6.11H.002z" mask="url(#a5mf267dxd)"/>
        </g>
    </g>
</svg>
