<svg width="10" height="9" viewBox="0 0 10 9" xmlns="http://www.w3.org/2000/svg">
    <path d="M.77 0c.095.062.2.107.287.183 1.317 1.133 2.635 2.263 3.955 3.391.156.134.297.274.357.477v.194c-.062.238-.24.384-.415.534C3.634 5.907 2.316 7.037.998 8.167.628 8.484.094 8.3.01 7.82a.56.56 0 0 1 .206-.544C1.295 6.35 2.375 5.424 3.454 4.5c.102-.088.2-.18.306-.26.083-.062.09-.098.004-.171-.609-.516-1.214-1.038-1.82-1.558-.553-.475-1.1-.96-1.662-1.423C-.161.722.033.12.473.017.481.015.487.006.493 0h.278zm4.632 0c.095.062.198.107.287.183 1.316 1.133 2.634 2.263 3.954 3.391.157.134.297.274.357.477v.194c-.062.238-.24.384-.415.534-1.32 1.128-2.637 2.258-3.956 3.388-.37.317-.903.133-.988-.347a.56.56 0 0 1 .207-.544C5.926 6.35 7.006 5.424 8.085 4.5c.102-.088.2-.18.307-.26.082-.062.09-.098.004-.171-.61-.516-1.215-1.038-1.82-1.558-.554-.475-1.1-.96-1.663-1.423C4.47.722 4.665.12 5.104.017c.008-.002.014-.011.021-.017h.277z" fill="currentColor" fill-rule="evenodd"/>
</svg>
