<svg width="10" height="9" viewBox="0 0 10 9" xmlns="http://www.w3.org/2000/svg" xmlns:xlink="http://www.w3.org/1999/xlink">
    <defs>
        <path id="jdp3d33dva" d="M0 0h5.369v8.325H0z"/>
        <path id="jdwt7fee8c" d="M0 0h5.369v8.325H0z"/>
    </defs>
    <g fill-rule="evenodd">
        <g transform="matrix(-1 0 0 1 10 0)">
            <mask id="8w64uv9vcb" fill="currentColor">
                <use xlink:href="#jdp3d33dva"/>
            </mask>
            <path d="M5.369 4.245c-.062.238-.24.384-.415.534C3.634 5.907 2.316 7.037.998 8.167.628 8.484.094 8.3.01 7.82a.56.56 0 0 1 .206-.544C1.295 6.35 2.375 5.424 3.454 4.5c.102-.088.2-.18.306-.26.083-.062.09-.098.004-.171-.609-.516-1.214-1.038-1.82-1.558-.553-.475-1.1-.96-1.662-1.423C-.161.722.033.12.473.017.481.015.487.006.493 0h.278c.094.062.198.107.286.183 1.317 1.133 2.635 2.263 3.955 3.391.156.134.297.274.357.477v.194z" fill="currentColor" mask="url(#8w64uv9vcb)"/>
        </g>
        <g transform="matrix(-1 0 0 1 5.369 0)">
            <mask id="tvsd6pxard" fill="currentColor">
                <use xlink:href="#jdwt7fee8c"/>
            </mask>
            <path d="M5.369 4.245c-.062.238-.24.384-.415.534C3.634 5.907 2.316 7.037.998 8.167.628 8.484.094 8.3.01 7.82a.56.56 0 0 1 .206-.544C1.295 6.35 2.375 5.424 3.454 4.5c.102-.088.2-.18.306-.26.083-.062.09-.098.004-.171-.609-.516-1.214-1.038-1.82-1.558-.553-.475-1.1-.96-1.662-1.423C-.161.722.033.12.473.017.481.015.487.006.493 0h.278c.094.062.198.107.286.183 1.317 1.133 2.635 2.263 3.955 3.391.156.134.297.274.357.477v.194z" fill="currentColor" mask="url(#tvsd6pxard)"/>
        </g>
    </g>
</svg>
