<svg width="163" height="45" viewBox="0 0 163 45" fill="none" xmlns="http://www.w3.org/2000/svg">
<path fill-rule="evenodd" clip-rule="evenodd" d="M82.8484 6.20658H90.5422V0.4446H82.8484V6.20658ZM82.8155 16.6034H95.6033V10.8414H82.8155V16.6034ZM101.517 26.9998H82.8933V21.2378H101.517V26.9998Z" fill="white"/>
<path fill-rule="evenodd" clip-rule="evenodd" d="M138.332 6.20658H130.638V0.4446H138.332V6.20658ZM138.365 16.6034H125.577V10.8414H138.365V16.6034ZM119.664 26.9998H138.287V21.2378H119.664V26.9998Z" fill="white"/>
<path d="M61 0.444824V27.0001H79.3463V21.2382H66.762V0.444824H61Z" fill="white"/>
<path d="M142.654 0.444824V27.0001H161V21.2382H148.416V0.444824H142.654Z" fill="white"/>
<path d="M117.708 0.282715L117.623 0.526347L110.641 20.4886L103.695 0.526848L103.61 0.282715H97.7879L97.9665 0.771231L107.391 26.5398L107.478 26.7786H107.732H113.511H113.766L113.853 26.5398L123.277 0.771231L123.456 0.282715H117.708Z" fill="white"/>
<path d="M62.299 33.959V42H60.891V33.959H62.299ZM61.133 42V40.702H65.654V42H61.133ZM71.2179 33.959V42H69.8099V33.959H71.2179ZM70.0519 42V40.702H74.5729V42H70.0519ZM80.1369 33.959V42H78.7289V33.959H80.1369ZM81.9079 39.228H79.7959V37.974H81.6109C82.0949 37.974 82.4616 37.853 82.7109 37.611C82.9676 37.3617 83.0959 37.017 83.0959 36.577C83.0959 36.137 82.9676 35.7997 82.7109 35.565C82.4616 35.3303 82.1022 35.213 81.6329 35.213H79.6639V33.959H81.9079C82.4506 33.959 82.9199 34.069 83.3159 34.289C83.7119 34.509 84.0199 34.817 84.2399 35.213C84.4599 35.6017 84.5699 36.06 84.5699 36.588C84.5699 37.1013 84.4599 37.5597 84.2399 37.963C84.0199 38.359 83.7119 38.6707 83.3159 38.898C82.9199 39.118 82.4506 39.228 81.9079 39.228ZM97.7771 34.63V42H96.3691V34.63H97.7771ZM94.0151 35.257V33.959H100.131V35.257H94.0151ZM105.615 42H104.207V33.959H107.276C108.186 33.959 108.893 34.179 109.399 34.619C109.913 35.059 110.169 35.675 110.169 36.467C110.169 37.0023 110.045 37.4607 109.795 37.842C109.553 38.216 109.194 38.502 108.717 38.7L110.246 42H108.706L107.342 38.997H105.615V42ZM105.615 35.213V37.754H107.276C107.724 37.754 108.072 37.6403 108.321 37.413C108.571 37.1857 108.695 36.8703 108.695 36.467C108.695 36.0637 108.571 35.7557 108.321 35.543C108.072 35.323 107.724 35.213 107.276 35.213H105.615ZM115.259 42H113.807L116.711 33.959H118.152L121.056 42H119.571L118.922 40.141H115.919L115.259 42ZM117.25 36.357L116.326 38.953H118.515L117.591 36.357C117.561 36.247 117.528 36.137 117.492 36.027C117.455 35.917 117.433 35.8217 117.426 35.741C117.411 35.8143 117.385 35.9097 117.349 36.027C117.319 36.137 117.286 36.247 117.25 36.357ZM128.076 42.132C127.291 42.132 126.609 41.9633 126.03 41.626C125.458 41.2813 125.011 40.801 124.688 40.185C124.373 39.5617 124.215 38.8283 124.215 37.985C124.215 37.149 124.376 36.4193 124.699 35.796C125.029 35.1727 125.491 34.6887 126.085 34.344C126.679 33.9993 127.365 33.827 128.142 33.827C128.78 33.827 129.352 33.9443 129.858 34.179C130.364 34.4137 130.782 34.7437 131.112 35.169C131.442 35.587 131.651 36.0857 131.739 36.665H130.254C130.115 36.1957 129.854 35.8327 129.473 35.576C129.099 35.312 128.641 35.18 128.098 35.18C127.614 35.18 127.189 35.2937 126.822 35.521C126.463 35.7483 126.184 36.071 125.986 36.489C125.788 36.907 125.689 37.4057 125.689 37.985C125.689 38.5423 125.788 39.0337 125.986 39.459C126.184 39.877 126.463 40.2033 126.822 40.438C127.189 40.6653 127.614 40.779 128.098 40.779C128.648 40.779 129.117 40.647 129.506 40.383C129.902 40.119 130.166 39.7633 130.298 39.316H131.761C131.658 39.8733 131.435 40.3647 131.09 40.79C130.753 41.2153 130.324 41.5453 129.803 41.78C129.29 42.0147 128.714 42.132 128.076 42.132ZM142.349 33.959L137.102 40.713V38.612L140.688 33.959H142.349ZM137.432 33.959V42H136.024V33.959H137.432ZM138.708 38.48L139.61 37.27L142.382 42H140.754L138.708 38.48ZM151.43 42H146.436V33.959H151.43V35.257H147.349L147.844 34.806V37.325H151.056V38.568H147.844V41.153L147.349 40.702H151.43V42ZM157.354 42H155.946V33.959H159.015C159.924 33.959 160.632 34.179 161.138 34.619C161.651 35.059 161.908 35.675 161.908 36.467C161.908 37.0023 161.783 37.4607 161.534 37.842C161.292 38.216 160.932 38.502 160.456 38.7L161.985 42H160.445L159.081 38.997H157.354V42ZM157.354 35.213V37.754H159.015C159.462 37.754 159.81 37.6403 160.06 37.413C160.309 37.1857 160.434 36.8703 160.434 36.467C160.434 36.0637 160.309 35.7557 160.06 35.543C159.81 35.323 159.462 35.213 159.015 35.213H157.354Z" fill="white"/>
<g clip-path="url(#clip0_2903_24531)">
<path d="M19.5937 13.1068C19.6604 14.4137 19.4663 16.015 19.6876 17.6042C20.1363 20.819 23.0092 23.356 26.269 23.3935C28.8054 23.4228 31.3418 23.3995 33.8781 23.4015C36.0396 23.4036 37.3068 24.844 37.036 26.9886C36.0962 34.4591 30.019 41.0131 22.5757 42.584C12.5686 44.6942 2.88395 38.5954 0.505227 28.684C-1.85127 18.8677 4.26734 8.78834 14.0733 6.33527C15.0322 6.09553 15.9953 5.79408 16.9936 5.91143C18.5134 6.09047 19.5724 7.30436 19.5896 8.83285C19.6048 10.161 19.5926 11.4892 19.5926 13.1057L19.5937 13.1068Z" fill="#FF45CA"/>
<path d="M32.7201 20.5855C31.2549 20.5218 29.7573 20.6755 28.2678 20.4965C25.111 20.1161 23.1951 18.3014 22.6201 15.1685C22.4898 14.4564 22.4069 13.7402 22.4079 13.0149C22.4109 10.8632 22.3998 8.71062 22.413 6.559C22.42 5.42705 22.5797 4.31431 23.0031 3.25418C23.8246 1.20069 25.3707 0.0505287 27.5473 0.00399629C32.226 -0.095138 36.1599 1.65084 39.2661 5.161C41.6348 7.83763 42.8534 11.015 42.9939 14.5737C43.1192 17.7369 41.3437 19.8278 38.2263 20.3761C36.4074 20.6968 34.5734 20.5207 32.7191 20.5855H32.7201Z" fill="white"/>
</g>
<defs>
<clipPath id="clip0_2903_24531">
<rect width="43" height="43" fill="white"/>
</clipPath>
</defs>
</svg>
