<svg width="16" height="16" viewBox="0 0 16 16" xmlns="http://www.w3.org/2000/svg">
    <path d="M12.755 7.204c.011-3.008-2.336-5.513-5.389-5.59C4.164 1.53 1.62 3.984 1.602 7.146c-.019 3.172 2.523 5.59 5.539 5.62 3.066.031 5.57-2.432 5.614-5.563zM15.016 16c-.222-.08-.393-.227-.557-.393-.891-.897-1.788-1.788-2.68-2.686-.096-.097-.155-.11-.272-.021-4.21 3.172-10.17.94-11.327-4.146-.834-3.666 1.298-7.312 4.881-8.43 3.985-1.245 8.246 1.225 9.125 5.311.462 2.145.016 4.112-1.292 5.875-.093.125-.078.185.025.288.898.89 1.77 1.809 2.693 2.67.521.487.526 1.234-.222 1.532h-.374z" fill="#b9b9b9" fill-rule="evenodd"/>
</svg>
