<svg width="18" height="18" viewBox="0 0 18 18"
    xmlns="http://www.w3.org/2000/svg"
    xmlns:xlink="http://www.w3.org/1999/xlink">
    <defs>
        <path id="q6c2oz6gva" d="M0 0h14.735v14.724H0z"/>
    </defs>
    <g fill="currentColor" fill-rule="evenodd">
        <g transform="translate(0 3.276)">
            <mask id="j18ppkr0ab" fill="#fff">
                <use xlink:href="#q6c2oz6gva"/>
            </mask>
            <path d="M.673 14.724C.166 14.564 0 14.205 0 13.691.01 9.45.005 5.21.005.97c0-.657.312-.97.966-.97h7.941c.458 0 .766.215.877.609a.808.808 0 0 1-.646 1.009c-.103.015-.21.02-.315.02-2.325.001-4.65.003-6.974-.003-.165 0-.217.035-.216.21.005 3.677.005 7.355 0 11.032 0 .17.043.214.213.214 3.678-.005 7.356-.006 11.033 0 .175 0 .21-.051.21-.216-.006-2.342-.004-4.685-.004-7.027 0-.45.184-.754.53-.885a.815.815 0 0 1 1.098.66c.013.087.011.176.011.264 0 2.6-.006 5.2.006 7.8.002.514-.166.873-.672 1.036H.673z" mask="url(#j18ppkr0ab)"/>
        </g>
        <path d="M18 7.527c-.062.118-.096.248-.185.354a.822.822 0 0 1-.87.266.8.8 0 0 1-.568-.689 2.66 2.66 0 0 1-.013-.28V2.847c-.092.016-.128.08-.174.127-2.717 2.715-5.434 5.43-8.15 8.149-.237.238-.497.387-.845.311a.812.812 0 0 1-.467-1.297c.058-.073.125-.14.19-.206l8.1-8.1c.05-.048.113-.082.193-.14-.116-.064-.186-.048-.251-.048l-4.182-.001c-.164 0-.327-.007-.48-.078a.81.81 0 0 1-.46-.882.81.81 0 0 1 .733-.671c.07-.007.14-.005.21-.005 2.062 0 4.124.007 6.185-.006.514-.003.874.165 1.034.673v6.854z"/>
    </g>
</svg>
