<svg width="23" height="19" viewBox="0 0 23 19" fill="none" xmlns="http://www.w3.org/2000/svg">
<mask id="mask0_2903_22956" style="mask-type:luminance" maskUnits="userSpaceOnUse" x="0" y="0" width="23" height="19">
<path fill-rule="evenodd" clip-rule="evenodd" d="M0 0H23V18.1503H0V0Z" fill="white"/>
</mask>
<g mask="url(#mask0_2903_22956)">
<path fill-rule="evenodd" clip-rule="evenodd" d="M16.2174 11.1298C15.3562 11.1304 14.4654 11.1311 13.5896 11.1282C12.5807 11.1248 11.8345 10.59 11.5935 9.69758C11.4245 9.07133 11.4941 8.45701 11.7896 7.96769C12.0639 7.51352 12.5092 7.19743 13.0434 7.07776C13.211 7.04026 13.3977 7.02184 13.6143 7.02149C15.0811 7.01931 16.5639 7.01873 18.0312 7.01873C18.8019 7.01873 19.5683 7.01891 20.3259 7.01904L21.2208 7.01922C21.5438 7.01926 21.5772 7.0528 21.5772 7.37796V7.56779C21.5773 8.64354 21.5775 9.71929 21.5771 10.795C21.5769 11.0882 21.536 11.1288 21.2403 11.1289C20.2989 11.1294 19.3575 11.1293 18.4162 11.1292L17.3702 11.1292C16.9861 11.1294 16.6017 11.1295 16.2174 11.1298ZM11.4875 16.692L8.899 16.6918C8.36835 16.6918 7.82872 16.6894 7.30679 16.687C6.07863 16.6814 4.80851 16.6756 3.55935 16.7014C3.00103 16.712 2.44925 16.4915 2.04513 16.0939C1.63709 15.6923 1.4139 15.148 1.41666 14.5612C1.42871 12.0033 1.42653 9.40259 1.42449 6.88759C1.42355 5.77696 1.42266 4.66637 1.42288 3.55579C1.42302 2.95766 1.63229 2.41549 2.01208 2.02916C2.39333 1.64136 2.93114 1.42725 3.52643 1.42627C5.72081 1.4228 7.98821 1.42106 10.4849 1.42106C12.7681 1.42106 15.2431 1.42249 18.0264 1.42542C19.0603 1.42649 19.8694 2.06239 20.0876 3.04548C20.1243 3.21088 20.1303 3.39061 20.1314 3.5287C20.1355 4.05765 20.1345 4.59573 20.1336 5.11614L20.133 5.50238C20.133 5.5244 20.1311 5.54758 20.1282 5.57694H19.9443C19.3071 5.57694 18.6699 5.57654 18.0327 5.57623C16.5671 5.57534 15.0517 5.57445 13.5613 5.57828C11.8792 5.58255 10.5511 6.59762 10.178 8.16429C9.93302 9.19257 10.1019 10.2114 10.6535 11.0332C11.1838 11.8232 12.0091 12.3413 12.9773 12.4921C13.1889 12.5251 13.4047 12.5253 13.6152 12.5256C15.2718 12.5272 16.9284 12.5272 18.5851 12.527L20.1307 12.5269C20.1306 12.7484 20.1329 12.9732 20.1351 13.1907C20.1403 13.6978 20.1456 14.2221 20.1206 14.7346C20.0646 15.8857 19.2087 16.6903 18.0393 16.6911C15.8553 16.6926 13.6714 16.6924 11.4875 16.692ZM22.9832 6.8403C22.9771 6.83056 22.9703 6.82095 22.9634 6.81143C22.9589 6.80525 22.9528 6.79679 22.9523 6.79679C22.7574 6.11276 22.3061 5.71566 21.5743 5.58518C21.5718 5.54256 21.5696 5.49901 21.5696 5.45612C21.5692 5.19787 21.5694 4.93962 21.5696 4.68137C21.5699 4.28864 21.5701 3.8959 21.5685 3.50321C21.5618 1.807 20.4454 0.428553 18.7905 0.0730984C18.5759 0.0270539 18.3457 0.003609 18.1061 0.00343105C13.0412 -0.000439357 8.10988 -0.00101769 3.44898 0.00160706C1.76317 0.00258579 0.331965 1.2098 0.045911 2.8722C0.0415957 2.89729 0.0318975 2.92523 0.0216209 2.9549C0.0158375 2.97154 0.0100986 2.98823 0.0049381 3.005L0 3.02097V15.1234L0.00324758 15.1365C0.0152592 15.1853 0.026381 15.2344 0.0375474 15.2834C0.0620155 15.3912 0.0872843 15.5028 0.122251 15.6118C0.573932 17.0203 1.53317 17.8604 2.97336 18.1085C2.98137 18.1099 2.99756 18.1178 3.01189 18.1247C3.0243 18.1307 3.03676 18.1367 3.0493 18.1419L3.06977 18.1503H18.4974L18.5099 18.1474C18.5569 18.1364 18.6039 18.1257 18.6509 18.1149C18.7519 18.0919 18.8564 18.0681 18.9591 18.0416C20.4755 17.652 21.5479 16.2868 21.5672 14.7217C21.573 14.2573 21.5716 13.7855 21.5702 13.3292C21.5696 13.1199 21.569 12.9105 21.5691 12.7011V12.5467C21.5788 12.5447 21.5884 12.5427 21.5979 12.5407C21.6783 12.5241 21.7542 12.5085 21.83 12.4851C22.3987 12.3096 22.7731 11.9376 22.9429 11.3794C22.9517 11.3502 22.9632 11.3207 22.9753 11.2894C22.9813 11.2739 22.9874 11.2583 22.9931 11.2427L23 11.2241V6.86726L22.9832 6.8403Z" fill="white"/>
</g>
<path fill-rule="evenodd" clip-rule="evenodd" d="M13.6431 7.97266H13.6391C13.0516 7.97266 12.5677 8.44658 12.5596 9.03097C12.5558 9.30252 12.6685 9.57594 12.8688 9.78129C13.0718 9.98932 13.3473 10.1104 13.6246 10.1134C13.629 10.1134 13.6333 10.1134 13.6376 10.1134C13.9322 10.1134 14.2057 10.0036 14.4089 9.80323C14.6138 9.60116 14.7272 9.32663 14.7281 9.03008C14.7301 8.40983 14.2839 7.97501 13.6431 7.97266Z" fill="white"/>
</svg>
